<?xml version="1.0" encoding="iso-8859-1"?>
<!-- Uploaded to: SVG Repo, www.svgrepo.com, Generator: SVG Repo Mixer Tools -->
<svg fill="#000000" height="800px" width="800px" version="1.1" id="Layer_1" xmlns="http://www.w3.org/2000/svg" xmlns:xlink="http://www.w3.org/1999/xlink" 
	 viewBox="0 0 485 485" xml:space="preserve">
<g>
	<path d="M444.931,270.056c3.169-10.513,4.814-21.496,4.814-32.562c0-62.054-50.484-112.539-112.538-112.539
		c-1.055,0-2.121,0.016-3.194,0.048c-9.292-12.96-21.286-23.885-35.105-31.907C281.84,83.188,262.334,77.95,242.5,77.95
		s-39.34,5.238-56.408,15.147c-13.819,8.022-25.813,18.947-35.105,31.907c-1.073-0.032-2.139-0.048-3.194-0.048
		c-0.093,0-0.185,0.003-0.277,0.003V5.112h-30v123.986c-20.308,5.68-38.311,16.927-52.261,31.983V5.112h-30v264.944H0v62.276
		c0,81.362,66.193,147.555,147.555,147.555h189.89c81.362,0,147.555-66.193,147.555-147.555v-62.276H444.931z M147.793,154.956
		c2.974,0,6.085,0.178,9.248,0.53l9.592,1.067l4.946-8.287c14.843-24.868,42.019-40.316,70.921-40.316s56.078,15.448,70.921,40.316
		l4.946,8.287l9.592-1.067c3.163-0.352,6.274-0.53,9.248-0.53c45.512,0,82.538,37.027,82.538,82.539
		c0,11.229-2.298,22.333-6.682,32.562h-87.205l41.059-41.059l-21.213-21.213l-62.271,62.271H257.5V163.459h-30v106.597h-25.932
		l-62.272-62.271l-21.213,21.213l41.059,41.059H71.937c-4.384-10.228-6.682-21.333-6.682-32.562
		C65.255,191.983,102.281,154.956,147.793,154.956z M455,332.333c0,64.82-52.735,117.555-117.555,117.555h-189.89
		C82.735,449.888,30,397.153,30,332.333v-32.276h425V332.333z"/>
</g>
</svg>